<mxfile host="app.diagrams.net" modified="2023-04-12T02:00:40.407Z" agent="Mozilla/5.0 (Windows NT 10.0; Win64; x64; rv:109.0) Gecko/20100101 Firefox/111.0" version="21.1.1" etag="9npojoeux_-dVavqA57L" type="github">
  <diagram name="第 1 页" id="7zdMeR4hQIOT9hDGS5_Y">
    <mxGraphModel>
      <root>
        <mxCell id="0" />
        <mxCell id="1" parent="0" />
      </root>
    </mxGraphModel>
  </diagram>
</mxfile>
